<svg width="14" height="14" viewBox="0 0 14 14" fill="none" xmlns="http://www.w3.org/2000/svg">
<path d="M13.7403 6.15817L12.8963 5.29116C12.5488 4.9343 11.9832 4.9343 11.6314 5.29116L8.48915 8.52353V0.917305C8.48915 0.411765 8.08606 0 7.59613 0H6.40473C5.91256 0 5.5117 0.407189 5.5117 0.917305V8.51892L2.36949 5.29116C2.02209 4.9343 1.45644 4.9343 1.10458 5.29116L0.260553 6.15817C-0.0868511 6.51503 -0.0868511 7.09608 0.260553 7.45752L6.36685 13.7301C6.54056 13.9085 6.76995 14 6.99707 14C7.22643 14 7.4536 13.9085 7.62731 13.7301L13.7336 7.45752C14.0877 7.09608 14.0877 6.51503 13.7403 6.15817Z" fill="black"/>
</svg>
